HIERARCHY
ROOT root
{
	OFFSET 0.000000 0.000000 0.000000
	CHANNELS 6 Xposition Yposition Zposition Zrotation Yrotation Xrotation
	JOINT lhip
	{
		OFFSET 0.058581 -0.082280 -0.017664
		CHANNELS 3 Zrotation Yrotation Xrotation
		JOINT lknee
		{
			OFFSET 0.043451 -0.386469 0.008037
			CHANNELS 3 Zrotation Yrotation Xrotation
			JOINT lankle
			{
				OFFSET -0.014790 -0.426874 -0.037428
				CHANNELS 3 Zrotation Yrotation Xrotation
				JOINT ltoe
				{
					OFFSET 0.041054 -0.060286 0.122042
					CHANNELS 3 Zrotation Yrotation Xrotation
					End Site
					{
						OFFSET 0.000000 0.000000 0.000000
					}
				}
			}
		}
	}
	JOINT rhip
	{
		OFFSET -0.060310 -0.090513 -0.013543
		CHANNELS 3 Zrotation Yrotation Xrotation
		JOINT rknee
		{
			OFFSET -0.043257 -0.383688 -0.004843
			CHANNELS 3 Zrotation Yrotation Xrotation
			JOINT rankle
			{
				OFFSET 0.019056 -0.420046 -0.034562
				CHANNELS 3 Zrotation Yrotation Xrotation
				JOINT rtoe
				{
					OFFSET -0.034840 -0.062106 0.130323
					CHANNELS 3 Zrotation Yrotation Xrotation
					End Site
					{
						OFFSET 0.000000 0.000000 0.000000
					}
				}
			}
		}
	}
	JOINT lowerback
	{
		OFFSET 0.004439 0.124404 -0.038385
		CHANNELS 3 Zrotation Yrotation Xrotation
		JOINT upperback
		{
			OFFSET 0.004488 0.137956 0.026820
			CHANNELS 3 Zrotation Yrotation Xrotation
			JOINT chest
			{
				OFFSET -0.002265 0.056032 0.002855
				CHANNELS 3 Zrotation Yrotation Xrotation
				JOINT lowerneck
				{
					OFFSET -0.013390 0.211636 -0.033468
					CHANNELS 3 Zrotation Yrotation Xrotation
					JOINT upperneck
					{
						OFFSET 0.010113 0.088937 0.050410
						CHANNELS 3 Zrotation Yrotation Xrotation
						End Site
						{
							OFFSET 0.000000 0.000000 0.000000
						}
					}
				}
				JOINT lclavicle
				{
					OFFSET 0.071702 0.114000 -0.018898
					CHANNELS 3 Zrotation Yrotation Xrotation
					JOINT lshoulder
					{
						OFFSET 0.122921 0.045205 -0.019046
						CHANNELS 3 Zrotation Yrotation Xrotation
						JOINT lelbow
						{
							OFFSET 0.255332 -0.015649 -0.022946
							CHANNELS 3 Zrotation Yrotation Xrotation
							JOINT lwrist
							{
								OFFSET 0.265709 0.012698 -0.007375
								CHANNELS 3 Zrotation Yrotation Xrotation
								End Site
								{
									OFFSET 0.000000 0.000000 0.000000
								}
							}
						}
					}
				}
				JOINT rclavicle
				{
					OFFSET -0.082954 0.112472 -0.023707
					CHANNELS 3 Zrotation Yrotation Xrotation
					JOINT rshoulder
					{
						OFFSET -0.113228 0.046853 -0.008472
						CHANNELS 3 Zrotation Yrotation Xrotation
						JOINT relbow
						{
							OFFSET -0.260127 -0.014369 -0.031269
							CHANNELS 3 Zrotation Yrotation Xrotation
							JOINT rwrist
							{
								OFFSET -0.269108 0.006794 -0.006027
								CHANNELS 3 Zrotation Yrotation Xrotation
								End Site
								{
									OFFSET 0.000000 0.000000 0.000000
								}
							}
						}
					}
				}
			}
		}
	}
}
MOTION
Frames: 8
Frame Time: 0.033333
0.492892 0.394638 0.827829 121.909687 -10.492639 175.383584 0.463248 -3.305414 -17.385287 -0.959644 -2.330661 -1.584994 -0.499501 8.536188 -16.973618 0.000000 -0.000000 0.000000 1.085939 4.669296 -16.720936 7.255154 2.545679 38.817255 19.096414 -1.969436 26.331598 0.000000 -0.000000 0.000000 20.229252 2.614589 1.897837 6.673275 4.877336 -14.461576 -0.885505 3.994583 9.729994 -3.010876 4.908983 33.865640 -2.453055 7.274164 -27.376997 50.568551 23.333132 0.588953 -72.523528 8.021531 15.714592 -21.263098 21.259148 48.004011 -38.595776 -10.727400 -8.509315 -50.003934 -3.968008 -8.127652 -37.254312 53.474258 -69.514964 -16.762559 5.291158 -27.930419 -5.179238 11.318404 -11.699868 
0.485383 0.389669 0.830675 121.773033 -9.635606 175.776199 0.483641 -3.533286 -18.744342 0.241765 -5.414401 -7.902717 -0.361186 7.540538 -16.662587 0.000000 -0.000000 0.000000 -0.094961 4.155345 -18.101426 8.297588 2.109797 46.874099 19.733347 -2.136493 27.124657 0.000000 -0.000000 0.000000 20.416636 1.748620 3.005555 6.836189 4.618174 -14.953461 -1.188855 3.799244 9.451377 -2.317404 5.894563 33.481293 -3.126306 6.888740 -26.939798 52.650861 23.995960 -0.856425 -70.635918 7.354996 15.998334 -13.725448 22.490265 51.148042 -37.069463 -10.086822 -9.017192 -49.974156 -4.271432 -9.489400 -35.090116 55.926178 -66.230419 -17.891086 4.580012 -26.145877 -5.742232 11.172045 -14.113096 
0.481456 0.381486 0.828430 120.435240 -6.995099 174.948374 0.718864 -4.588930 -18.580973 -1.572518 -4.978995 -4.410516 1.064885 7.836521 -16.269545 0.000000 -0.000000 0.000000 -1.638310 5.127797 -19.821336 11.026343 3.075049 54.522518 20.281002 -0.478108 28.643108 0.000000 -0.000000 0.000000 18.839230 1.149951 6.336987 6.638120 5.192418 -16.042100 -1.309741 3.864985 9.257955 -1.627605 6.790341 33.622992 -3.382834 6.499661 -26.980403 54.519704 25.163110 -2.732015 -68.881852 4.136523 16.033938 -4.106448 24.030515 51.802827 -34.194317 -9.975806 -12.547230 -49.828481 -5.151756 -10.353370 -32.288337 59.422619 -62.803899 -19.733419 3.610773 -23.964891 -7.267473 10.370514 -16.837913 
0.477511 0.373973 0.825775 119.483417 -4.831049 174.473077 0.820054 -4.927113 -18.031299 -4.931015 -5.670342 3.264893 1.654212 7.001797 -16.361414 0.000000 -0.000000 0.000000 -2.774168 5.745186 -23.098836 12.436227 2.808783 58.329948 19.767394 0.206873 29.101582 0.000000 -0.000000 0.000000 17.926458 0.347583 8.452695 5.944489 6.119957 -17.397036 -1.323332 4.074887 9.231404 -1.058276 7.418598 34.521279 -3.600954 5.695157 -26.484652 55.188064 26.553614 -6.231534 -66.647668 -1.411448 14.754631 5.355455 25.259603 49.716679 -31.179396 -8.113649 -13.837150 -49.839376 -5.170822 -11.061590 -27.714617 62.160012 -58.406549 -20.814897 3.049388 -20.931117 -8.173238 9.807046 -18.630122 
0.473680 0.367493 0.822593 119.319700 -3.327922 174.382841 0.521274 -5.107472 -16.402292 -7.338850 -6.833141 11.084541 1.769998 6.127639 -17.202906 0.000000 -0.000000 0.000000 -3.288515 5.742742 -26.760030 12.199713 2.221962 56.262633 18.352573 -0.017117 28.713424 0.000000 -0.000000 0.000000 17.902094 -0.475862 9.546146 5.156824 6.767236 -18.578648 -1.233503 4.045625 8.869121 -0.870542 8.034751 34.806663 -3.644312 4.968763 -25.280719 53.408601 26.766981 -10.095285 -62.243848 -8.228580 11.105251 11.996104 24.294723 42.770224 -28.680351 -5.861717 -9.927605 -49.653789 -4.303074 -11.626019 -22.826662 63.410559 -54.342234 -21.204105 3.709979 -17.546201 -6.278711 9.981342 -17.411291 
0.470453 0.360284 0.821031 119.813522 -2.813638 174.419920 0.396383 -4.592830 -14.182622 -9.517607 -7.172559 18.793345 1.014468 4.875219 -18.558719 0.000000 -0.000000 0.000000 -3.183434 5.836972 -29.825437 11.301736 1.820047 48.682322 16.723606 -0.512352 27.911773 0.000000 -0.000000 0.000000 17.847128 -1.186601 10.357034 4.677957 6.950811 -19.661765 -0.762822 3.612819 8.488082 -1.135876 8.947264 34.228444 -3.262426 4.339420 -24.649689 50.660324 24.743026 -12.901593 -56.157528 -15.141745 6.354702 14.200788 22.798217 32.046838 -26.852214 -8.520397 -8.057193 -49.312683 -2.782596 -11.997742 -18.055484 62.510633 -50.591519 -21.034440 5.476378 -14.094074 -4.195251 11.196124 -14.572537 
0.466801 0.352655 0.822155 120.479277 -3.637051 174.478429 0.257439 -3.294094 -12.224687 -11.570278 -6.902900 27.269418 -0.250820 3.216975 -20.022548 0.000000 -0.000000 0.000000 -3.044376 6.003635 -31.888831 10.203379 1.991939 37.139484 15.109673 -1.345508 26.932025 0.000000 -0.000000 0.000000 17.768028 -2.146142 11.164803 4.067524 6.621191 -20.545525 -0.363416 3.071710 8.390127 -1.515196 9.151215 31.355410 -3.334619 3.205325 -24.222448 47.665166 22.191405 -15.814148 -49.270328 -21.973882 2.797553 14.432030 21.989840 21.523799 -26.507968 -12.918561 -9.149894 -48.938125 -1.364008 -12.563000 -13.940683 60.287238 -46.669948 -20.631320 6.472712 -11.280126 -2.562713 11.926816 -11.288286 
0.462176 0.344677 0.822335 121.161967 -5.594530 173.894979 -0.017952 -2.117442 -9.935077 -12.868265 -6.373588 36.013703 -1.738839 1.941418 -21.492155 0.000000 -0.000000 0.000000 -2.686238 5.467824 -31.754122 8.386898 2.527368 23.767731 13.078940 -2.742777 25.361430 0.000000 -0.000000 0.000000 17.710305 -2.639404 11.899448 3.163147 5.778768 -20.368181 -0.090022 2.422177 7.754170 -1.832262 8.696833 28.175490 -3.505400 2.061635 -23.192400 43.197356 18.043991 -18.378953 -39.480037 -30.662267 -2.585099 15.663065 22.514774 10.627528 -27.963410 -11.779616 -3.897092 -48.438678 1.060906 -12.216110 -11.407945 56.009205 -44.283816 -20.115291 6.179372 -9.867438 2.110350 11.160178 -6.238598 
